HIERARCHY
ROOT Hips
{
	OFFSET 0.000000 0.000000 0.000000
	CHANNELS 6 Xposition Yposition Zposition Xrotation Yrotation Zrotation
	JOINT LeftUpLeg_virtual
	{
		OFFSET 0.000000 0.000000 0.000000
		CHANNELS 3 Xrotation Yrotation Zrotation
		JOINT LeftUpLeg
		{
			OFFSET 11.394100 -6.187798 -0.413800
			CHANNELS 3 Xrotation Yrotation Zrotation
			JOINT LeftLeg
			{
				OFFSET 0.430247 -32.302673 3.732800
				CHANNELS 3 Xrotation Yrotation Zrotation
				JOINT LeftFoot
				{
					OFFSET -0.430247 -48.264931 -6.423300
					CHANNELS 3 Xrotation Yrotation Zrotation
					JOINT LeftToeBase
					{
						OFFSET 4.230900 -16.068199 23.438400
						CHANNELS 3 Xrotation Yrotation Zrotation
						JOINT LeftToe_End
						{
							OFFSET 4.510700 0.695400 19.974600
							CHANNELS 3 Xrotation Yrotation Zrotation
							End Site
							{
								OFFSET 0 0 0
							}
						}
					}
				}
			}
		}
	}
	JOINT RightUpLeg_virtual
	{
		OFFSET 0.000000 0.000000 0.000000
		CHANNELS 3 Xrotation Yrotation Zrotation
		JOINT RightUpLeg
		{
			OFFSET -11.333700 -6.187798 -0.413800
			CHANNELS 3 Xrotation Yrotation Zrotation
			JOINT RightLeg
			{
				OFFSET -0.430392 -32.302628 3.733000
				CHANNELS 3 Xrotation Yrotation Zrotation
				JOINT RightFoot
				{
					OFFSET 0.430392 -48.264973 -6.423500
					CHANNELS 3 Xrotation Yrotation Zrotation
					JOINT RightToeBase
					{
						OFFSET -4.230900 -16.068199 23.438400
						CHANNELS 3 Xrotation Yrotation Zrotation
						JOINT RightToe_End
						{
							OFFSET -4.510700 0.695400 19.974600
							CHANNELS 3 Xrotation Yrotation Zrotation
							End Site
							{
								OFFSET 0 0 0
							}
						}
					}
				}
			}
		}
	}
	JOINT Spine_virtual
	{
		OFFSET 0.000000 0.000000 0.000000
		CHANNELS 3 Xrotation Yrotation Zrotation
		JOINT Spine
		{
			OFFSET -0.002400 12.777504 0.315300
			CHANNELS 3 Xrotation Yrotation Zrotation
			JOINT Spine1
			{
				OFFSET -0.002067 5.816869 0.032633
				CHANNELS 3 Xrotation Yrotation Zrotation
				JOINT Spine1_split
				{
					OFFSET -0.002067 5.816869 0.032633
					CHANNELS 3 Xrotation Yrotation Zrotation
					JOINT Spine2
					{
						OFFSET -0.002067 5.816869 0.032633
						CHANNELS 3 Xrotation Yrotation Zrotation
						JOINT Neck_virtual
						{
							OFFSET 0.000000 0.000000 0.000000
							CHANNELS 3 Xrotation Yrotation Zrotation
							JOINT Neck
							{
								OFFSET -0.003700 21.199493 -0.826900
								CHANNELS 3 Xrotation Yrotation Zrotation
								JOINT Head
								{
									OFFSET 0.000000 20.442200 4.834800
									CHANNELS 3 Xrotation Yrotation Zrotation
									JOINT HeadTop_End
									{
										OFFSET 0.000000 34.668396 4.968400
										CHANNELS 3 Xrotation Yrotation Zrotation
										End Site
										{
											OFFSET 0 0 0
										}
									}
								}
							}
						}
						JOINT LeftShoulder_virtual
						{
							OFFSET 0.000000 0.000000 0.000000
							CHANNELS 3 Xrotation Yrotation Zrotation
							JOINT LeftShoulder
							{
								OFFSET 3.288150 8.794197 -1.372250
								CHANNELS 3 Xrotation Yrotation Zrotation
								JOINT LeftShoulder_split
								{
									OFFSET 3.288150 8.794197 -1.372250
									CHANNELS 3 Xrotation Yrotation Zrotation
									JOINT LeftArm
									{
										OFFSET 11.953299 -2.279007 -0.146200
										CHANNELS 3 Xrotation Yrotation Zrotation
										JOINT LeftForeArm
										{
											OFFSET 18.448900 0.000000 0.000000
											CHANNELS 3 Xrotation Yrotation Zrotation
											JOINT LeftHand
											{
												OFFSET 29.527798 0.000000 0.000000
												CHANNELS 3 Xrotation Yrotation Zrotation
												End Site
												{
													OFFSET 0 0 0
												}
											}
										}
									}
								}
							}
						}
						JOINT RightShoulder_virtual
						{
							OFFSET 0.000000 0.000000 0.000000
							CHANNELS 3 Xrotation Yrotation Zrotation
							JOINT RightShoulder
							{
								OFFSET -3.249400 8.794197 -1.372250
								CHANNELS 3 Xrotation Yrotation Zrotation
								JOINT RightShoulder_split
								{
									OFFSET -3.249400 8.794197 -1.372250
									CHANNELS 3 Xrotation Yrotation Zrotation
									JOINT RightArm
									{
										OFFSET -11.953299 -2.279007 -0.146200
										CHANNELS 3 Xrotation Yrotation Zrotation
										JOINT RightForeArm
										{
											OFFSET -18.448900 0.000000 0.000000
											CHANNELS 3 Xrotation Yrotation Zrotation
											JOINT RightHand
											{
												OFFSET -29.527802 0.000000 0.000000
												CHANNELS 3 Xrotation Yrotation Zrotation
												End Site
												{
													OFFSET 0 0 0
												}
											}
										}
									}
								}
							}
						}
					}
				}
			}
		}
	}
}
MOTION
Frames: 4
Frame Time: 0.03333333
-0.065676 85.303543 -0.139523 0.000000 0.000000 0.000000 -5.398868 -46.271362 -0.212058 -38.933519 5.287439 17.886068 58.809800 -5.660317 4.384339 -17.445942 -8.502685 -15.880106 -1.594038 -0.000007 0.000001 0.000000 0.000000 0.000000 -5.398868 -46.271362 -0.212058 -29.905437 -7.026631 -29.148618 58.363987 -9.468499 -7.709929 -19.429252 -5.380409 23.113878 -0.013000 -0.000009 0.000001 0.000000 0.000000 0.000000 -5.398868 -46.271362 -0.212058 9.456606 7.225492 -1.652080 2.187716 0.989897 -0.915631 0.000000 0.000000 0.000000 0.000000 0.000000 0.000000 2.202829 0.982769 -0.894153 0.084650 13.220558 4.538677 8.920925 20.138142 -4.130235 0.000000 0.000000 0.000000 2.202829 0.982769 -0.894153 1.117176 3.546345 -8.633310 0.000000 0.000000 0.000000 -53.487017 4.935507 -51.503000 -179.999882 -73.641918 -179.999896 0.000000 0.000000 0.000000 2.202829 0.982769 -0.894153 3.036129 13.027198 -5.371406 0.000000 0.000000 0.000000 -48.713715 27.172832 83.457071 179.999991 74.011773 179.999991 0.000000 0.000000 0.000000 
-0.300826 85.116867 0.996651 0.000000 0.000000 0.000000 -5.134917 -45.749983 0.327776 -38.986187 5.632215 17.676943 59.598216 -5.295633 3.947077 -18.440741 -9.568958 -15.439450 -1.565028 0.000010 0.000004 0.000000 0.000000 0.000000 -5.134917 -45.749983 0.327776 -30.152222 -6.966498 -30.148014 59.350034 -10.631132 -7.834099 -20.062538 -4.759651 21.722921 -0.837864 -0.000028 -0.000007 0.000000 0.000000 0.000000 -5.134917 -45.749983 0.327776 9.725301 7.306947 -1.959223 2.523092 1.222474 -1.220269 0.000000 0.000000 0.000000 0.000000 0.000000 0.000000 2.544996 1.213391 -1.187302 -0.119668 13.073316 4.516061 8.975797 19.311224 -3.677644 0.000000 0.000000 0.000000 2.544996 1.213391 -1.187302 1.271897 3.450429 -9.352721 0.000000 0.000000 0.000000 -53.737698 4.019011 -51.821041 -179.999827 -75.623820 -179.999841 0.000000 0.000000 0.000000 2.544996 1.213391 -1.187302 3.009249 12.882599 -5.845509 0.000000 0.000000 0.000000 -47.901783 26.454240 85.051660 -179.999950 74.958184 179.999950 0.000000 0.000000 0.000000 
-0.623343 85.564888 1.859341 0.000000 0.000000 0.000000 -4.047305 -44.693927 1.292887 -38.946418 6.075851 17.563116 58.722469 -5.122026 3.470067 -18.590499 -11.033528 -15.046336 -1.494850 -0.000002 -0.000003 0.000000 0.000000 0.000000 -4.047305 -44.693927 1.292887 -31.342700 -6.525377 -31.312599 60.739008 -11.035748 -7.572829 -18.098956 -3.939832 20.875981 -2.394887 0.000007 0.000002 0.000000 0.000000 0.000000 -4.047305 -44.693927 1.292887 9.790294 7.384713 -2.122010 2.594818 1.422008 -1.430865 0.000000 0.000000 0.000000 0.000000 0.000000 0.000000 2.620825 1.416632 -1.390368 0.028426 12.927951 4.403647 9.333210 18.379033 -3.294512 0.000000 0.000000 0.000000 2.620825 1.416632 -1.390368 1.435831 2.731609 -9.918552 0.000000 0.000000 0.000000 -55.296423 3.055671 -50.600773 179.999855 -76.200807 179.999868 0.000000 0.000000 0.000000 2.620825 1.416632 -1.390368 2.991140 13.365057 -6.522554 0.000000 0.000000 0.000000 -48.525820 25.458808 85.967343 179.999909 76.225444 -179.999937 0.000000 0.000000 0.000000 
-1.062846 86.485680 2.338467 0.000000 0.000000 0.000000 -2.366121 -43.366169 2.411324 -38.841076 6.454998 17.519355 56.516335 -5.243136 3.141224 -18.007170 -12.334152 -14.812860 -1.391108 -0.000009 0.000003 0.000000 0.000000 0.000000 -2.366121 -43.366169 2.411324 -33.611965 -5.702646 -31.937644 62.503724 -11.589332 -7.401325 -14.730293 -2.054375 19.415455 -4.382010 -0.035129 2.292832 0.000000 0.000000 0.000000 -2.366121 -43.366169 2.411324 9.673576 7.470959 -2.164868 2.440926 1.603982 -1.508409 0.000000 0.000000 0.000000 0.000000 0.000000 0.000000 2.468079 1.605245 -1.463900 0.438051 12.868366 4.200646 9.672848 17.742342 -2.835045 0.000000 0.000000 0.000000 2.468079 1.605245 -1.463900 1.527207 1.767908 -10.058398 0.000000 0.000000 0.000000 -58.053084 2.576179 -48.372110 179.999991 -75.441393 179.999991 0.000000 0.000000 0.000000 2.468079 1.605245 -1.463900 3.017524 14.740441 -7.053104 0.000000 0.000000 0.000000 -50.761993 24.442674 85.564020 -179.999677 77.679058 179.999677 0.000000 0.000000 0.000000 
